<?xml version="1.0" encoding="UTF-8"?>
<svg xmlns="http://www.w3.org/2000/svg" xmlns:xlink="http://www.w3.org/1999/xlink" version="1.1" viewBox="0 0 300 50">
  <defs>
    <style>
      .cls-1 {
        fill: none;
      }

      .cls-2 {
        fill: #fff;
      }

      .cls-3 {
        clip-path: url(#clippath);
      }
    </style>
    <clipPath id="clippath">
      <rect class="cls-1" x="12.7" y="8.5" width="34" height="33"/>
    </clipPath>
  </defs>
  <!-- Generator: Adobe Illustrator 28.7.1, SVG Export Plug-In . SVG Version: 1.2.0 Build 142)  -->
  <g>
    <g id="Layer_1">
      <g id="Group_545">
        <path id="Path_6149" class="cls-2" d="M80.3,12.9v3.3h-9v20.6h-4.3v-20.6h-9v-3.3h22.4ZM101,12.9c2.4-.1,4.8.6,6.7,1.9,1.6,1.2,2.6,3.1,2.5,5.2.1,2-.8,4-2.5,5.2-2,1.3-4.4,1.9-6.7,1.8l-.4.2h-6.1v9.6h-4.2V12.9h10.8ZM100.7,24c1.4.1,2.7-.2,3.9-1,.9-.7,1.4-1.8,1.3-2.9,0-1.1-.4-2.2-1.3-2.9-1.1-.7-2.5-1.1-3.9-1h-6.2v7.8h6.2ZM103.2,24.8l8.6,12h-4.9l-7.4-10.5,3.7-1.5ZM143.8,36.7h-4.5l-2.5-6.3h-11.1l-2.5,6.3h-4.4l10-23.9h5.1l10,23.9ZM126.9,27.3h8.7l-4.3-11.1-4.4,11.1ZM174.3,30.4c-.5,1.4-1.3,2.6-2.4,3.7-1.1,1-2.4,1.8-3.8,2.3-1.5.5-3.1.8-4.8.8-2.3,0-4.6-.4-6.6-1.5-1.8-.9-3.3-2.4-4.3-4.2-1.1-2-1.6-4.3-1.5-6.6,0-2.3.5-4.6,1.5-6.6,1-1.8,2.5-3.3,4.3-4.2,2-1,4.3-1.5,6.6-1.5,1.6,0,3.2.2,4.7.6,1.3.4,2.5,1.1,3.6,1.9,1,.9,1.8,2,2.3,3.3l-4,1.6c-.4-1.3-1.2-2.4-2.3-3.1-1.2-.7-2.6-1.1-4-1-1.5,0-3,.3-4.3,1.1-1.2.7-2.2,1.8-2.9,3-.7,1.5-1.1,3.2-1,4.9,0,1.7.3,3.3,1,4.8.6,1.3,1.5,2.4,2.8,3.1,1.3.7,2.8,1.1,4.3,1.1,1.5,0,3-.4,4.2-1.1,1.2-.8,2.1-2,2.5-3.4l4.1,1.2ZM204.2,12.9v3.3h-9v20.6h-4.3v-20.6h-9v-3.3h22.4ZM218.4,12.9v23.9h-4.3V12.9h4.3ZM242,12.5c2.3,0,4.6.4,6.6,1.5,1.8.9,3.3,2.4,4.3,4.2,1.1,2,1.6,4.3,1.5,6.6,0,2.3-.5,4.6-1.5,6.6-1,1.8-2.5,3.3-4.3,4.2-2.1,1-4.3,1.5-6.6,1.5-2.3,0-4.6-.4-6.6-1.5-1.8-.9-3.3-2.4-4.3-4.2-1.1-2-1.6-4.3-1.5-6.6,0-2.3.5-4.6,1.5-6.6,1-1.8,2.5-3.3,4.3-4.2,2-1,4.3-1.5,6.6-1.5ZM242,15.9c-1.5,0-3,.3-4.3,1.1-1.2.7-2.1,1.8-2.7,3-.7,1.5-1,3.2-1,4.9,0,1.7.3,3.3,1,4.8.6,1.3,1.5,2.3,2.7,3.1,1.3.7,2.8,1.1,4.3,1.1,1.5,0,3-.3,4.3-1.1,1.2-.7,2.2-1.8,2.7-3.1.7-1.5,1-3.2,1-4.8,0-1.7-.3-3.3-1-4.9-.6-1.3-1.5-2.3-2.7-3-1.3-.7-2.8-1.1-4.3-1.1ZM287.3,12.9v23.9h-5.1l-10.2-15.1-2.6-4.2h0l.2,3.9v15.4h-3.9V12.9h5l10.2,15,2.6,4.3h0l-.2-3.9v-15.4h4Z"/>
        <g id="Group_544">
          <g class="cls-3">
            <g id="Group_543">
              <path id="Path_6145" class="cls-2" d="M30.1,19.1s-2.7,1.6-3.3,1.9c-.5.2-.8.7-.7,1.2,0,1.9,0,9.6,0,11.5,0,.2,0,.5.1.7.1.2.3.4.5.5.8.5,4,2.2,4.8,2.7.4.3.8.3,1.2.1.3-.2.5-.7.5-1.1v-5.1l3.1-1.8v9.3s-4.1,2.4-4.1,2.4l-9.3-5.2v-16.5l4.1-2.3,3,1.7Z"/>
              <path id="Path_6146" class="cls-2" d="M46.7,10.9v10.6s-14.4,8.2-14.4,8.2l-4.1-2.4v-3.5s2.8,1.6,3.3,1.9c.2.1.5.2.7.2.3,0,.5,0,.7-.2,1.7-1,8.4-4.8,10-5.8.2-.1.4-.3.5-.5.1-.2.2-.5.2-.7,0-.9,0-4.5,0-5.4,0-.4-.1-.9-.5-1.1-.4-.2-.8-.1-1.2.1-.7.4-4.5,2.6-4.5,2.6l-3.1-1.8,8.1-4.7,4.1,2.3Z"/>
              <path id="Path_6147" class="cls-2" d="M12.7,13.9l9.2-5.4,14.5,8.2v4.7s-3,1.8-3,1.8c0,0,0-3.1,0-3.8,0-.2,0-.5-.2-.7-.1-.2-.3-.4-.6-.5-1.7-.9-8.5-4.7-10.1-5.7-.2-.1-.5-.2-.7-.2-.2,0-.5,0-.7.2-.8.5-3.9,2.3-4.7,2.8-.4.2-.7.6-.7,1,0,.4.3.8.7,1,.7.4,4.5,2.5,4.5,2.5v3.5s-8.2-4.6-8.2-4.6v-4.7Z"/>
            </g>
          </g>
        </g>
      </g>
    </g>
  </g>
</svg>