<?xml version="1.0" encoding="UTF-8"?>
<svg id="Layer_1" xmlns="http://www.w3.org/2000/svg" viewBox="0 0 148.4 41.6">
  <defs>
    <style>
      .cls-1 {
        isolation: isolate;
      }

      .cls-2 {
        fill: #fff;
      }
    </style>
  </defs>
  <g id="Layer_1-2" data-name="Layer_1">
    <g id="Layer_1-2">
      <g>
        <path class="cls-2" d="M34,15.15c-.5-.3-1-.6-1.5-.9,0,0-.2-.3-.2-.4-.7-3.9-2.3-7.4-5-10.3-.3-.3-.6-.6-.9-.9h-.5c-5.1,2.4-8.2,6.5-9.3,12-1.1,5.8.4,10.9,4.6,15.1,2.3,2.2,5,3.8,8.2,4.4,2.7.5,5.2,0,7.5-1.2,0,0,.2,0,.4-.2v1.4c0,.4-.2.3-.3.3-3.2,1.5-6.5,1.8-9.8.6-6-2.1-10.2-6.1-11.8-12.3-1.9-7.5.2-13.9,6-19.1,1.4-1.3,3.1-2.2,4.9-2.9.2,0,.4-.1.5,0,3.6,3.4,5.9,7.5,7,12.4,0,.5.2,1,.2,1.6v.5h0v-.1Z"/>
        <path class="cls-2" d="M41.4,36.85v1.4c0,.2-.2.3-.3.4-1.6,1.2-3.5,1.8-5.4,2.3-5,1.3-9.8.3-14.2-2.2-5.9-3.3-9.7-8.2-11.8-14.6-1-3-1.1-6.2-.7-9.4.6-4.9,2.7-9.1,5.9-12.8.4-.4.8-.9,1.1-1.3.2-.2.3-.3.6-.2.4.1.8.2,1.3.3-.1.2-.3.3-.4.4-2.4,2.4-4.4,5-5.6,8.1-2.9,7.5-2,14.5,2.6,21.1,3.3,4.7,7.7,7.8,13.3,9,4.4,1,8.6,0,12.5-2.2.3-.2.6-.4,1-.7h0v.4h.1Z"/>
        <path class="cls-2" d="M20.1,34.45c.4-.4.7-.7,1-.9,1.4.7,2.6,1.5,4,2.1,2.6,1.2,5.4,1.8,8.2,1.3,3-.4,5.7-1.7,8-3.6,0,0,.2-.3.2-.5-.7-10.8-8.6-16.5-15.5-18.1-2.6-.6-5.1-.6-7.7-.1h-.2c0-.4.1-.9.2-1.3,0-.1.2-.2.4-.2,1.6-.3,3.3-.4,5-.2,4.5.4,8.5,2.1,12,4.9,4.1,3.3,6.5,7.6,7.3,12.8.2,1,.2,2,.3,2.9,0,0,0,.3-.2.4-2,1.7-4.3,3.1-6.8,3.8-4.9,1.5-9.4.5-13.6-1.9-.8-.4-1.5-1-2.3-1.5h-.3v.1Z"/>
        <path class="cls-2" d="M23,.65c-5.5,3.7-8.9,8.6-9.6,15.2-.7,6.6,1.8,12.1,6.5,16.7-.3.3-.6.6-1,1-.6-.6-1.2-1.2-1.7-1.9-2.7-3.1-4.5-6.6-5.1-10.6-.7-5.2.2-10,3.1-14.4,1.6-2.5,3.6-4.7,6-6.5.3-.2.5-.2.7,0,.4.2.8.4,1.2.6h-.1v-.1Z"/>
        <path class="cls-2" d="M7.2,18.05v.2c0,.6.2,1.2,0,1.8-.2.5-.8.8-1.1,1.3-2.6,3-4.2,6.5-4.6,10.5,0,.9,0,1.5.9,2.1,2.4,1.4,4.8,2.7,7.5,3.2,1.9.3,3.7.3,5.6-.3.3,0,.5,0,.7.2.3.3.6.6,1.1,1-1,.2-1.8.5-2.6.6-4.2.7-8-.3-11.5-2.4-1-.6-1.9-1.3-2.9-1.9-.3-.4-.3-.5-.3-.8,0-5.2,1.9-9.7,5.3-13.5.6-.7,1.2-1.3,1.9-1.9h0v-.1Z"/>
        <path class="cls-2" d="M17.8,20.65c0-.5-.1-1-.1-1.4,1.4-.4,2.7-.6,4.1-.5,3.4,0,6.4,1.1,9.2,3.2,2.3,1.7,4.2,3.8,5.3,6.4.3.8.5,1.7.8,2.6v.3c-.3.2-.7.4-1.1.6-.8-4.1-3.2-7.1-6.7-9.4-3.5-2.2-7.2-2.9-11.4-1.8,0,0-.1,0-.1,0Z"/>
        <path class="cls-2" d="M23.8,16.05c1.4.1,2.7.4,3.9.9,6.3,2.4,10.4,6.8,12,13.4.2.7.2,1.4.3,2.1,0,0,0,.3-.2.3-.3.2-.7.4-1.1.6,0-.7-.2-1.4-.3-2.1-.8-4.1-2.9-7.5-6.1-10.1-2.4-1.9-5.1-3.1-8.1-3.7-.4,0-.5-.2-.5-.6v-.9h.1v.1Z"/>
        <path class="cls-2" d="M1.6,36.75c.9.5,1.7.9,2.5,1.3,2.9,1.5,6,2.2,9.3,2,1.8,0,3.6-.5,5.2-1.1h.8c.3.2.6.4,1,.7-.2,0-.4.2-.5.3-4.8,2.1-9.6,2.2-14.4.3-1.2-.5-2.4-1.1-3.5-1.7-.3,0-.3-.3-.3-.6v-1.3h0l-.1.1Z"/>
        <path class="cls-2" d="M4.3,33.25c-.2,0-.4-.2-.7-.3-.7-.4-.8-.4-.7-1.2.4-3.7,2-6.9,4.5-9.6h0c0,.5.2,1,.4,1.6v.3c-2.2,2.7-3.4,5.8-3.5,9.3v.2h0v-.3Z"/>
        <path class="cls-2" d="M24.6,4.85c.4-.2.8-.5,1.3-.8,2.6,2.6,4.2,5.6,4.9,9.2-.5-.2-1-.4-1.5-.6,0,0-.1-.1-.2-.2-.8-2.9-2.2-5.4-4.4-7.5v-.2c-.1,0,0,0,0,0h0l-.1.1Z"/>
        <path class="cls-2" d="M5.8,32.45c.3.2.6.3.8.4,2.1,1.1,4.4,1.6,6.8,1.2.1,0,.2,0,.4.2s0,0,0,0c.2.3.4.7.7,1-.6,0-1.1.2-1.7.2-2.2.2-4.2-.2-6.2-1.1-.7-.3-1-.8-1-1.5v-.5h.2v.1Z"/>
        <path class="cls-2" d="M26.4,22.55c.5.3.9.5,1.3.8-.9,2.5-2.3,4.7-4.3,6.5-.4-.3-.7-.6-1.1-.9,1.9-1.8,3.3-3.8,4.1-6.4h0Z"/>
        <path class="cls-2" d="M29,24.05c.2.2.4.4.6.5.5.2.4.6.2,1-.8,1.9-2,3.6-3.4,5.2l-.4.4h-.2c-.4-.1-.8-.3-1.2-.6,1.9-1.9,3.3-4,4.3-6.5h.1Z"/>
        <path class="cls-2" d="M27.5,12.15c-.6-.1-1-.2-1.5-.3-.1,0-.2-.2-.3-.4-.6-1.4-1.4-2.6-2.4-3.7-.4-.4-.8-.7-1.2-1.1.4-.3.7-.6,1.1-1,2,1.7,3.4,3.9,4.2,6.4h0l.1.1Z"/>
        <path class="cls-2" d="M27.4,31.95c1.6-1.8,3-3.7,3.9-6,.4.3.7.6,1,1v.4c-.8,1.8-1.9,3.4-3.2,5-.1.2-.3.2-.5,0-.4-.2-.8-.3-1.2-.5h0v.1Z"/>
        <path class="cls-2" d="M7.2,31.75c-.4-.2-.7-.4-1.1-.6,0,0-.2-.3,0-.4.4-1.9,1.2-3.6,2.6-5.1.2.5.4,1,.6,1.5,0,0,0,.2-.1.3-1.1,1.2-1.6,2.7-1.9,4.4h0l-.1-.1Z"/>
        <path class="cls-2" d="M21.5,25.55c-.8,0-1.5-.7-1.5-1.5s.7-1.5,1.5-1.5,1.5.7,1.5,1.5-.6,1.5-1.5,1.5h0Z"/>
        <path class="cls-2" d="M19.2,17.45c-.5.1-1,.2-1.6.3v-1.2s.1-.2.2-.2c.4,0,.9-.2,1.3-.2v1.4h.1v-.1Z"/>
        <path class="cls-2" d="M20.9,17.25v-1.4h1.3v1.2l-.2.2c-.3,0-.7,0-1.1,0Z"/>
      </g>
      <g class="cls-1">
        <g class="cls-1">
          <path class="cls-2" d="M67.9,22.85l5.4-8.2h2l-6.4,9.5,6.6,9.8h-2l-5.6-8.4-5.7,8.4h-1.9l6.6-9.8-6.4-9.5h2s5.4,8.2,5.4,8.2Z"/>
          <path class="cls-2" d="M87.4,34.05c-.2-.5-.3-1.1-.3-2-.6.7-1.3,1.3-2.1,1.7-.9.4-1.8.6-2.7.6-1.4,0-2.5-.4-3.4-1.2s-1.3-1.7-1.3-2.9.6-2.5,1.7-3.3c1.2-.8,2.8-1.2,4.9-1.2h2.9v-1.6c0-1-.3-1.8-.9-2.4s-1.6-.9-2.8-.9-2,.3-2.7.9-1.1,1.2-1.1,2h-1.6c0-1.2.5-2.1,1.6-3s2.4-1.3,3.9-1.3,2.9.4,3.8,1.2c.9.8,1.4,1.9,1.4,3.4v6.8c0,1.4.1,2.4.4,3.1v.2h-1.7v-.1ZM82.4,32.95c1.1,0,2-.3,2.8-.8s1.4-1.2,1.8-2.1v-3.2h-2.8c-1.6,0-2.8.3-3.7.9-.9.6-1.3,1.3-1.3,2.3s.3,1.5.9,2,1.4.8,2.3.8v.1Z"/>
          <path class="cls-2" d="M94.4,19.65v2.5c.6-.9,1.3-1.6,2.1-2s1.7-.7,2.7-.7c1.5,0,2.7.4,3.4,1.3.8.9,1.1,2.2,1.1,3.9v9.4h-1.6v-9.4c0-1.3-.3-2.2-.8-2.9-.5-.6-1.4-.9-2.6-.9s-1.9.3-2.6.9c-.8.6-1.3,1.4-1.7,2.5v9.8h-1.6v-14.4h1.6Z"/>
          <path class="cls-2" d="M116.9,34.05c-.2-.5-.3-1.1-.3-2-.6.7-1.3,1.3-2.1,1.7-.9.4-1.8.6-2.7.6-1.4,0-2.5-.4-3.4-1.2s-1.3-1.7-1.3-2.9.6-2.5,1.7-3.3c1.2-.8,2.8-1.2,4.9-1.2h2.9v-1.6c0-1-.3-1.8-.9-2.4s-1.6-.9-2.8-.9-2,.3-2.7.9-1.1,1.2-1.1,2h-1.6c0-1.2.5-2.1,1.6-3s2.4-1.3,3.9-1.3,2.9.4,3.8,1.2c.9.8,1.4,1.9,1.4,3.4v6.8c0,1.4.1,2.4.4,3.1v.2h-1.7v-.1ZM111.9,32.95c1.1,0,2-.3,2.8-.8s1.4-1.2,1.8-2.1v-3.2h-2.8c-1.6,0-2.8.3-3.7.9-.9.6-1.3,1.3-1.3,2.3s.3,1.5.9,2,1.4.8,2.3.8v.1Z"/>
          <path class="cls-2" d="M121.8,26.75c0-2.2.5-4,1.5-5.3s2.3-2,4.1-2,3.4.8,4.4,2.3v-8.1h1.6v20.4h-1.5v-1.9c-1.1,1.5-2.6,2.2-4.6,2.2s-3-.7-4-2-1.5-3.1-1.5-5.4c0,0,0-.2,0-.2ZM123.4,27.05c0,1.8.4,3.3,1.1,4.3.7,1.1,1.8,1.6,3.1,1.6,2,0,3.3-.9,4.2-2.6v-6.7c-.8-1.9-2.2-2.8-4.1-2.8s-2.4.5-3.1,1.6c-.7,1-1.1,2.6-1.1,4.6h-.1Z"/>
          <path class="cls-2" d="M146.8,32.25c-1,1.4-2.5,2.1-4.6,2.1s-2.7-.4-3.5-1.3-1.2-2.2-1.2-4v-9.3h1.6v9.2c0,2.7,1.1,4.1,3.3,4.1s3.8-1,4.4-2.9v-10.4h1.6v14.4h-1.5v-1.8l-.1-.1Z"/>
        </g>
      </g>
    </g>
  </g>
</svg>