<?xml version="1.0" encoding="UTF-8"?>
<svg id="Layer_1" xmlns="http://www.w3.org/2000/svg" version="1.1" viewBox="0 0 148.4 41.6">
  <!-- Generator: Adobe Illustrator 29.3.1, SVG Export Plug-In . SVG Version: 2.1.0 Build 151)  -->
  <defs>
    <style>
      .st0 {
        isolation: isolate;
      }

      .st1 {
        fill: #fff;
      }
    </style>
  </defs>
  <g id="Layer_1-2">
    <g id="Layer_1-21" data-name="Layer_1-2">
      <g>
        <path class="st1" d="M48.2,17.1c-.3-.2-.6-.4-1-.6,0,0-.1-.2-.1-.3-.5-2.5-1.5-4.8-3.2-6.7-.2-.2-.4-.4-.6-.6h-.3c-3.3,1.6-5.3,4.2-6,7.8-.7,3.8.3,7.1,3,9.8,1.5,1.4,3.2,2.5,5.3,2.9,1.7.3,3.4,0,4.9-.8,0,0,.1,0,.3-.1v.9c0,.3-.1.2-.2.2-2.1,1-4.2,1.2-6.3.4-3.9-1.4-6.6-4-7.6-8-1.2-4.9.1-9,3.9-12.4.9-.8,2-1.4,3.2-1.9.1,0,.3,0,.3,0,2.3,2.2,3.8,4.9,4.5,8,0,.3.1.6.1,1v.3h0s0,0,0,0Z"/>
        <path class="st1" d="M52.9,31.2v.9c0,.1-.1.2-.2.3-1,.8-2.3,1.2-3.5,1.5-3.2.8-6.3.2-9.2-1.4-3.8-2.1-6.3-5.3-7.6-9.5-.6-1.9-.7-4-.5-6.1.4-3.2,1.7-5.9,3.8-8.3.3-.3.5-.6.7-.8.1-.1.2-.2.4-.1.3,0,.5.1.8.2,0,.1-.2.2-.3.3-1.6,1.6-2.9,3.2-3.6,5.2-1.9,4.9-1.3,9.4,1.7,13.7,2.1,3,5,5.1,8.6,5.8,2.9.6,5.6,0,8.1-1.4.2-.1.4-.3.6-.5h0v.3h0Z"/>
        <path class="st1" d="M39.2,29.6c.3-.3.5-.5.6-.6.9.5,1.7,1,2.6,1.4,1.7.8,3.5,1.2,5.3.8,1.9-.3,3.7-1.1,5.2-2.3,0,0,.1-.2.1-.3-.5-7-5.6-10.7-10-11.7-1.7-.4-3.3-.4-5,0h-.1c0-.3,0-.6.1-.8,0,0,.1-.1.3-.1,1-.2,2.1-.3,3.2-.1,2.9.3,5.5,1.4,7.8,3.2,2.7,2.1,4.2,4.9,4.7,8.3.1.6.1,1.3.2,1.9,0,0,0,.2-.1.3-1.3,1.1-2.8,2-4.4,2.5-3.2,1-6.1.3-8.8-1.2-.5-.3-1-.6-1.5-1h-.2s0,0,0,0Z"/>
        <path class="st1" d="M41,7.7c-3.6,2.4-5.8,5.6-6.2,9.8-.5,4.3,1.2,7.8,4.2,10.8-.2.2-.4.4-.6.6-.4-.4-.8-.8-1.1-1.2-1.7-2-2.9-4.3-3.3-6.9-.5-3.4.1-6.5,2-9.3,1-1.6,2.3-3,3.9-4.2.2-.1.3-.1.5,0,.3.1.5.3.8.4h0s0,0,0,0Z"/>
        <path class="st1" d="M30.8,19h0c0,.5.1.9,0,1.3-.1.3-.5.5-.7.8-1.7,1.9-2.7,4.2-3,6.8,0,.6,0,1,.6,1.4,1.6.9,3.1,1.7,4.9,2.1,1.2.2,2.4.2,3.6-.2.2,0,.3,0,.5.1.2.2.4.4.7.6-.6.1-1.2.3-1.7.4-2.7.5-5.2-.2-7.5-1.6-.6-.4-1.2-.8-1.9-1.2-.2-.3-.2-.3-.2-.5,0-3.4,1.2-6.3,3.4-8.7.4-.5.8-.8,1.2-1.2h0s0,0,0,0Z"/>
        <path class="st1" d="M37.7,20.7c0-.3,0-.6,0-.9.9-.3,1.7-.4,2.7-.3,2.2,0,4.1.7,6,2.1,1.5,1.1,2.7,2.5,3.4,4.1.2.5.3,1.1.5,1.7v.2c-.2.1-.5.3-.7.4-.5-2.7-2.1-4.6-4.3-6.1-2.3-1.4-4.7-1.9-7.4-1.2,0,0,0,0,0,0Z"/>
        <path class="st1" d="M41.5,17.7c.9,0,1.7.3,2.5.6,4.1,1.6,6.7,4.4,7.8,8.7.1.5.1.9.2,1.4,0,0,0,.2-.1.2-.2.1-.5.3-.7.4,0-.5-.1-.9-.2-1.4-.5-2.7-1.9-4.9-4-6.5-1.6-1.2-3.3-2-5.2-2.4-.3,0-.3-.1-.3-.4v-.6h0Z"/>
        <path class="st1" d="M27.2,31.1c.6.3,1.1.6,1.6.8,1.9,1,3.9,1.4,6,1.3,1.2,0,2.3-.3,3.4-.7h.5c.2.1.4.3.6.5-.1,0-.3.1-.3.2-3.1,1.4-6.2,1.4-9.3.2-.8-.3-1.6-.7-2.3-1.1-.2,0-.2-.2-.2-.4v-.8h0s0,0,0,0Z"/>
        <path class="st1" d="M28.9,28.9c-.1,0-.3-.1-.5-.2-.5-.3-.5-.3-.5-.8.3-2.4,1.3-4.5,2.9-6.2h0c0,.3.1.6.3,1v.2c-1.4,1.7-2.2,3.8-2.3,6h0c0,.1,0,0,0,0Z"/>
        <path class="st1" d="M42.1,10.5c.3-.1.5-.3.8-.5,1.7,1.7,2.7,3.6,3.2,6-.3-.1-.6-.3-1-.4,0,0,0,0-.1-.1-.5-1.9-1.4-3.5-2.9-4.9h0c0-.1,0-.1,0-.1h0s0,0,0,0Z"/>
        <path class="st1" d="M29.9,28.3c.2.1.4.2.5.3,1.4.7,2.9,1,4.4.8,0,0,.1,0,.3.1s0,0,0,0c.1.2.3.5.5.6-.4,0-.7.1-1.1.1-1.4.1-2.7-.1-4-.7-.5-.2-.6-.5-.6-1v-.3h.1s0,0,0,0Z"/>
        <path class="st1" d="M43.2,21.9c.3.2.6.3.8.5-.6,1.6-1.5,3-2.8,4.2-.3-.2-.5-.4-.7-.6,1.2-1.2,2.1-2.5,2.7-4.1h0Z"/>
        <path class="st1" d="M44.9,22.9c.1.1.3.3.4.3.3.1.3.4.1.6-.5,1.2-1.3,2.3-2.2,3.4l-.3.3h-.1c-.3,0-.5-.2-.8-.4,1.2-1.2,2.1-2.6,2.8-4.2,0,0,0,0,0,0Z"/>
        <path class="st1" d="M43.9,15.2c-.4,0-.6-.1-1-.2,0,0-.1-.1-.2-.3-.4-.9-.9-1.7-1.6-2.4-.3-.3-.5-.5-.8-.7.3-.2.5-.4.7-.6,1.3,1.1,2.2,2.5,2.7,4.1h0s0,0,0,0Z"/>
        <path class="st1" d="M43.9,28c1-1.2,1.9-2.4,2.5-3.9.3.2.5.4.6.6v.3c-.5,1.2-1.2,2.2-2.1,3.2,0,.1-.2.1-.3,0-.3-.1-.5-.2-.8-.3h0s0,0,0,0Z"/>
        <path class="st1" d="M30.8,27.9c-.3-.1-.5-.3-.7-.4,0,0-.1-.2,0-.3.3-1.2.8-2.3,1.7-3.3.1.3.3.6.4,1,0,0,0,.1,0,.2-.7.8-1,1.7-1.2,2.9h0s0,0,0,0Z"/>
        <path class="st1" d="M40.1,23.9c-.5,0-1-.5-1-1s.5-1,1-1,1,.5,1,1-.4,1-1,1h0Z"/>
        <path class="st1" d="M38.6,18.6c-.3,0-.6.1-1,.2v-.8s0-.1.1-.1c.3,0,.6-.1.8-.1v.9h0s0,0,0,0Z"/>
        <path class="st1" d="M39.7,18.5v-.9h.8v.8h-.1c-.2.1-.5.1-.7.1Z"/>
      </g>
      <g class="st0">
        <g class="st0">
          <path class="st1" d="M70.1,22.1l3.5-5.3h1.3l-4.1,6.2,4.3,6.3h-1.3l-3.6-5.4-3.7,5.4h-1.2l4.3-6.3-4.1-6.2h1.3s3.5,5.3,3.5,5.3Z"/>
          <path class="st1" d="M82.8,29.4c-.1-.3-.2-.7-.2-1.3-.4.5-.8.8-1.4,1.1-.6.3-1.2.4-1.7.4-.9,0-1.6-.3-2.2-.8s-.8-1.1-.8-1.9.4-1.6,1.1-2.1c.8-.5,1.8-.8,3.2-.8h1.9v-1c0-.6-.2-1.2-.6-1.6s-1-.6-1.8-.6-1.3.2-1.7.6-.7.8-.7,1.3h-1c0-.8.3-1.4,1-1.9s1.6-.8,2.5-.8,1.9.3,2.5.8c.6.5.9,1.2.9,2.2v4.4c0,.9,0,1.6.3,2h0c0,.1-1.1.1-1.1.1,0,0,0,0,0,0ZM79.5,28.7c.7,0,1.3-.2,1.8-.5s.9-.8,1.2-1.4v-2.1h-1.8c-1,0-1.8.2-2.4.6-.6.4-.8.8-.8,1.5s.2,1,.6,1.3.9.5,1.5.5c0,0,0,0,0,0Z"/>
          <path class="st1" d="M87.3,20.1v1.6c.4-.6.8-1,1.4-1.3s1.1-.5,1.7-.5c1,0,1.7.3,2.2.8.5.6.7,1.4.7,2.5v6.1h-1v-6.1c0-.8-.2-1.4-.5-1.9-.3-.4-.9-.6-1.7-.6s-1.2.2-1.7.6c-.5.4-.8.9-1.1,1.6v6.3h-1v-9.3s1,0,1,0Z"/>
          <path class="st1" d="M101.9,29.4c-.1-.3-.2-.7-.2-1.3-.4.5-.8.8-1.4,1.1-.6.3-1.2.4-1.7.4-.9,0-1.6-.3-2.2-.8s-.8-1.1-.8-1.9.4-1.6,1.1-2.1c.8-.5,1.8-.8,3.2-.8h1.9v-1c0-.6-.2-1.2-.6-1.6s-1-.6-1.8-.6-1.3.2-1.7.6-.7.8-.7,1.3h-1c0-.8.3-1.4,1-1.9s1.6-.8,2.5-.8,1.9.3,2.5.8c.6.5.9,1.2.9,2.2v4.4c0,.9,0,1.6.3,2h0c0,.1-1.1.1-1.1.1,0,0,0,0,0,0ZM98.6,28.7c.7,0,1.3-.2,1.8-.5s.9-.8,1.2-1.4v-2.1h-1.8c-1,0-1.8.2-2.4.6-.6.4-.8.8-.8,1.5s.2,1,.6,1.3.9.5,1.5.5c0,0,0,0,0,0Z"/>
          <path class="st1" d="M105,24.7c0-1.4.3-2.6,1-3.4s1.5-1.3,2.7-1.3,2.2.5,2.9,1.5v-5.2h1v13.2h-1v-1.2c-.7,1-1.7,1.4-3,1.4s-1.9-.5-2.6-1.3-1-2-1-3.5c0,0,0-.1,0-.1ZM106.1,24.8c0,1.2.3,2.1.7,2.8.5.7,1.2,1,2,1,1.3,0,2.1-.6,2.7-1.7v-4.3c-.5-1.2-1.4-1.8-2.7-1.8s-1.6.3-2,1c-.5.6-.7,1.7-.7,3h0Z"/>
          <path class="st1" d="M121.2,28.2c-.6.9-1.6,1.4-3,1.4s-1.7-.3-2.3-.8-.8-1.4-.8-2.6v-6h1v6c0,1.7.7,2.7,2.1,2.7s2.5-.6,2.9-1.9v-6.7h1v9.3h-1v-1.2s0,0,0,0Z"/>
        </g>
      </g>
    </g>
  </g>
</svg>